# xmcd
#
# Track frame offsets:
#	150
#	14133
#	28038
#	43888
#	59862
#	75769
#	92797
#	109995
#	121416
#	136877
#
# Disc length: 2075 seconds
#
# Revision: 1
# Processed by: cddbd v1.5.2PL0 Copyright (c) Steve Scherf et al.
# Submitted via: audiograbber 1.83.01
#
DISCID=8a08190a
DTITLE=Chris Young - The Man I Want to Be
DYEAR=2009
DGENRE=Country
TTITLE0=That Makes Me
TTITLE1=Voices
TTITLE2=The Dashboard
TTITLE3=Gettin' You Home (The Black Dress Song)
TTITLE4=It Takes A Man
TTITLE5=The Shoebox
TTITLE6=Rose In Paradise (Duet With Willie Nelson)
TTITLE7=Twenty-One Candles
TTITLE8=The Man I Want To Be
TTITLE9=Rainy Night In Georgia
EXTD=
EXTT0=
EXTT1=
EXTT2=
EXTT3=
EXTT4=
EXTT5=
EXTT6=
EXTT7=
EXTT8=
EXTT9=
PLAYORDER=
